<?xml version="1.0" encoding="UTF-8"?>
<svg id="Layer_1" xmlns="http://www.w3.org/2000/svg" version="1.1" viewBox="0 0 800 800">
  <!-- Generator: Adobe Illustrator 29.1.0, SVG Export Plug-In . SVG Version: 2.1.0 Build 142)  -->
  <defs>
    <style>
      .st0 {
        fill: #141313;
      }

      .st1 {
        fill: #fff;
      }
    </style>
  </defs>
  <path class="st0" d="M394,18.5c268.4-2,456,271.8,353.7,521.7-108.5,265.1-461.1,318-643.9,96.2C-98.4,391,77.6,20.9,394,18.5ZM379.5,407.8c.5-47.6-12.8-100-50.2-131.7-45.7-38.7-118.9-33.9-163,4.9-75.4,66.3-60.3,227.6,44.1,257.3,68.6,19.5,151.4-8.5,164.2-85.2h-46.6c-11.2,60.4-102,64-137.9,24.5-9.8-10.8-21.4-35-21.4-49.6v-20.2h210.8ZM460.3,249.7h-61.3l100.2,140.1-108.8,154h58.8l80.3-120.1c1.7-.4,8,9.3,9.4,11.4,25.1,35.3,48.1,72.5,72,108.7h62.5l-112.5-158.5,100.3-135.6h-57l-71.2,99.2-3.6,2.5-69.3-101.7Z"/>
  <path class="st1" d="M379.5,407.8h-210.8v20.2c0,14.6,11.6,38.8,21.4,49.6,35.8,39.5,126.7,35.8,137.9-24.5h46.6c-12.8,76.7-95.6,104.7-164.2,85.2-104.4-29.8-119.5-191-44.1-257.3,44.1-38.8,117.3-43.6,163-4.9,37.4,31.7,50.7,84.2,50.2,131.7ZM329.2,369.8c-1.3-50.8-45.8-86.7-95.9-78.1-37.6,6.4-63.4,40.7-64.6,78.1h160.5Z"/>
  <path class="st1" d="M460.3,249.7l69.3,101.7,3.6-2.5,71.2-99.2h57l-100.3,135.6,112.5,158.5h-62.5c-23.9-36.2-46.9-73.4-72-108.7-1.5-2.1-7.7-11.8-9.4-11.4l-80.3,120.1h-58.8l108.8-154-100.2-140.1h61.3Z"/>
  <path d="M329.2,369.8h-160.5c1.2-37.4,27-71.7,64.6-78.1,50.1-8.6,94.6,27.3,95.9,78.1Z"/>
</svg>