<?xml version="1.0" encoding="UTF-8"?>
<svg id="Layer_2" xmlns="http://www.w3.org/2000/svg" version="1.1" viewBox="0 0 3618.6 3618.6">
  <!-- Generator: Adobe Illustrator 29.1.0, SVG Export Plug-In . SVG Version: 2.1.0 Build 142)  -->
  <defs>
    <style>
      .st0 {
        fill: #222;
      }

      .st1 {
        fill: #00d8ff;
      }

      .st2 {
        fill: none;
        stroke: #00d8ff;
        stroke-miterlimit: 10;
        stroke-width: 144.7px;
      }
    </style>
  </defs>
  <circle class="st0" cx="1809.3" cy="1809.3" r="1723.3"/>
  <g>
    <circle class="st1" cx="1809.3" cy="1807" r="246.5" transform="translate(-747.8 1808.6) rotate(-45)"/>
    <g>
      <path class="st2" d="M1809.3,1305.7c330.9,0,638.4,47.5,870.2,127.3,279.3,96.1,451,241.9,451,373.9s-182,292.4-481.9,391.7c-226.7,75.1-525.2,114.4-839.3,114.4s-627.1-36.8-856.5-115.2c-290.1-99.2-464.9-256-464.9-390.9s164-275.5,439.4-371.5c232.7-81.1,547.7-129.6,882-129.6h0Z"/>
      <path class="st2" d="M1373,1557.8c165.3-286.7,360.1-529.3,545.1-690.2,222.8-193.9,434.9-269.8,549.2-203.9,119.1,68.7,162.4,303.7,98.6,613.3-48.2,234-163.3,512.1-320.3,784.3-160.9,279-345.2,524.9-527.6,684.4-230.8,201.8-454.1,274.8-570.9,207.4-113.4-65.4-156.8-279.7-102.4-566.2,46-242.3,161.3-539.4,328.3-828.9h0Z"/>
      <path class="st2" d="M1373.5,2061.7c-165.8-286.5-278.7-576.3-325.8-816.9-56.7-289.9-16.6-511.6,97.6-577.7,119-68.9,344.2,11,580.5,220.8,178.7,158.6,362.1,397.2,519.5,669.1,161.4,278.8,282.4,561.2,329.4,798.9,59.6,300.8,11.3,530.6-105.4,598.2-113.3,65.6-320.6-3.8-541.7-194.1-186.7-160.7-386.6-409.1-554-698.3h0Z"/>
    </g>
  </g>
</svg>