<?xml version="1.0" encoding="UTF-8"?>
<svg id="Layer_1" xmlns="http://www.w3.org/2000/svg" version="1.1" viewBox="0 0 800 800">
  <!-- Generator: Adobe Illustrator 29.1.0, SVG Export Plug-In . SVG Version: 2.1.0 Build 142)  -->
  <defs>
    <style>
      .st0 {
        fill: #141313;
      }

      .st1 {
        fill: #fff;
        fill-rule: evenodd;
      }
    </style>
  </defs>
  <circle class="st0" cx="397.3" cy="393.3" r="368.7"/>
  <path class="st1" d="M400,201.2c-88.9,0-144.4,44.2-166.7,132.5,33.3-44.2,72.2-60.7,116.7-49.7,25.4,6.3,43.5,24.6,63.5,44.8,32.7,33,70.5,71.1,153.1,71.1s144.4-44.2,166.7-132.5c-33.3,44.2-72.2,60.7-116.7,49.7-25.4-6.3-43.5-24.6-63.6-44.8-32.7-33-70.5-71.1-153.1-71.1h0ZM233.3,400c-88.9,0-144.4,44.2-166.7,132.5,33.3-44.2,72.2-60.7,116.7-49.7,25.4,6.3,43.5,24.6,63.6,44.8,32.7,33,70.5,71.1,153.1,71.1s144.4-44.2,166.7-132.5c-33.3,44.2-72.2,60.7-116.7,49.7-25.4-6.3-43.5-24.6-63.5-44.8-32.7-33-70.6-71.1-153.2-71.1Z"/>
</svg>